<?xml version="1.0" encoding="utf-8"?>
<!-- Generator: Adobe Illustrator 16.0.3, SVG Export Plug-In . SVG Version: 6.00 Build 0)  -->
<!DOCTYPE svg PUBLIC "-//W3C//DTD SVG 1.1//EN" "http://www.w3.org/Graphics/SVG/1.1/DTD/svg11.dtd">
<svg version="1.1" id="Capa_1" xmlns="http://www.w3.org/2000/svg" xmlns:xlink="http://www.w3.org/1999/xlink" x="0px" y="0px"
	 width="612px" height="792px" viewBox="0 0 612 792" enable-background="new 0 0 612 792" xml:space="preserve">
<g>
	<g>
		<path fill="#FFFFFF" d="M586.499,115.5H25.5C11.416,115.5,0,126.917,0,141s11.416,25.5,25.5,25.5h561
			c14.084,0,25.501-11.417,25.501-25.5C612.001,126.916,600.583,115.5,586.499,115.5z"/>
	</g>
</g>
<g>
	<g>
		<path fill="#FCFCFC" d="M586.499,370.5H25.5C11.416,370.5,0,381.916,0,396s11.416,25.501,25.5,25.501h561
			c14.084,0,25.501-11.417,25.501-25.501S600.583,370.5,586.499,370.5z"/>
	</g>
</g>
<g>
	<g>
		<path fill="#FFFFFF" d="M586.499,625.5H25.5C11.416,625.5,0,636.917,0,651.001c0,14.083,11.416,25.5,25.5,25.5h561
			c14.084,0,25.501-11.417,25.501-25.5C612.001,636.917,600.583,625.5,586.499,625.5z"/>
	</g>
</g>
</svg>
