<?xml version="1.0" encoding="utf-8"?>
<!-- Generator: Adobe Illustrator 16.0.3, SVG Export Plug-In . SVG Version: 6.00 Build 0)  -->
<!DOCTYPE svg PUBLIC "-//W3C//DTD SVG 1.1//EN" "http://www.w3.org/Graphics/SVG/1.1/DTD/svg11.dtd">
<svg version="1.1" id="Capa_1" xmlns="http://www.w3.org/2000/svg" xmlns:xlink="http://www.w3.org/1999/xlink" x="0px" y="0px"
	 width="612px" height="633.5px" viewBox="0 0 612 633.5" enable-background="new 0 0 612 633.5" xml:space="preserve">
<path fill="#10E5E5" d="M471.252,34.156c91.621,29.369,134.929,165.505,60.089,275.607c-66.305,97.538-36.529,163.76-74.109,253.004
	c-25.425,60.363-50.646,75.066-79.299-3.096c-23.393-63.771-21.552-168.745-69.364-168.399
	c-47.813,0.334-45.949,104.52-69.354,168.399c-28.438,77.553-53.719,63.854-79.311,3.096
	c-39.016-92.648-6.693-153.982-74.026-252.884C11.025,199.889,53.913,63.657,145.882,34.156
	c76.155-24.42,138.778,6.969,162.686,22.005C332.485,41.124,395.096,9.735,471.252,34.156z"/>
<polygon fill="#FFFFFF" points="258.444,191.01 204.655,208.941 186.724,262.73 168.794,208.941 115.004,191.01 168.794,173.081 
	186.724,119.29 204.655,173.081 "/>
<path d="M461.352,72.327c-6.599,0-11.952,5.355-11.952,11.953c0,6.598,5.354,11.953,11.952,11.953s11.953-5.354,11.953-11.953
	C473.305,77.681,467.952,72.327,461.352,72.327z"/>
<path d="M475.844,25.717c-74.963-24.038-137.609,2.861-166.333,19.437c-28.72-16.579-91.357-43.479-166.338-19.437
	C43.875,57.568-2.678,202.562,76.938,319.554c37.72,55.405,42.757,98.141,48.09,143.387c3.904,33.121,7.94,67.369,24.801,107.41
	c11.339,26.918,27.367,57.711,51.081,57.708c0.214,0,0.433-0.002,0.648-0.007c19.069-0.451,34.436-19.362,49.822-61.324
	c7.837-21.391,12.859-46.631,17.715-71.036c8.742-43.934,17.782-89.36,40.5-89.521c0.041,0,0.08,0,0.121,0
	c22.472,0,31.49,45.443,40.214,89.389c4.859,24.485,9.885,49.807,17.722,71.171c15.404,42.025,30.771,60.969,49.82,61.418
	c0.218,0.005,0.432,0.007,0.646,0.007c23.666,0,39.716-30.842,51.071-57.805c16.111-38.265,20.333-72.429,24.415-105.469
	c5.746-46.518,11.175-90.455,48.563-145.456l0,0C622.719,200.925,573.474,57.013,475.844,25.717z M522.396,305.987
	c-40.636,59.778-46.677,108.676-52.52,155.965c-4.061,32.867-7.896,63.912-22.722,99.117
	c-17.591,41.764-27.791,43.179-29.081,43.179c-0.016,0-0.026,0-0.038,0c-0.46-0.011-11.458-0.783-27.94-45.749
	c-7.195-19.618-12.036-44.007-16.717-67.593c-5.254-26.478-10.217-51.485-18.396-71.006c-10.469-24.978-25.683-37.637-45.228-37.637
	c-0.108,0-0.22,0-0.328,0.001c-19.626,0.138-34.898,12.896-45.387,37.923c-8.177,19.511-13.139,44.442-18.39,70.838
	c-4.68,23.515-9.517,47.831-16.715,67.476c-16.452,44.869-27.477,45.642-27.938,45.652c-1.071,0.02-11.391-0.961-29.132-43.08
	c-15.548-36.922-19.212-68.013-23.091-100.931c-5.435-46.112-11.055-93.797-52.069-154.04
	C24.934,200.641,68.197,74.877,150.477,48.483c71.551-22.944,130.603,6.861,152.67,20.742c3.888,2.447,8.837,2.448,12.726,0.001
	c22.074-13.877,81.141-43.68,152.673-20.742C552.456,75.38,592.719,202.533,522.396,305.987z"/>
<path d="M490.536,105.938c-5.454,3.72-6.858,11.156-3.138,16.61c5.063,7.424,9.249,15.883,12.438,25.14
	c11.911,34.575,8.804,74.914-8.527,110.679c-2.88,5.941-0.396,13.09,5.544,15.969c5.941,2.88,13.092,0.397,15.97-5.544
	c20.066-41.409,23.572-88.387,9.617-128.89c-3.884-11.271-9.028-21.641-15.293-30.825
	C503.425,103.621,495.989,102.216,490.536,105.938z"/>
<path d="M262.525,179.67l-48.12-16.04l-16.04-48.12c-1.627-4.88-6.195-8.174-11.34-8.174s-9.712,3.292-11.34,8.174l-16.04,48.12
	l-48.12,16.04c-4.88,1.627-8.173,6.195-8.173,11.34c0,5.146,3.292,9.711,8.173,11.34l48.12,16.04l16.04,48.12
	c1.627,4.88,6.195,8.174,11.34,8.174s9.712-3.292,11.34-8.174l16.04-48.12l48.12-16.04c4.88-1.627,8.173-6.195,8.173-11.34
	C270.698,185.865,267.405,181.298,262.525,179.67z M201.174,197.6c-3.569,1.189-6.371,3.99-7.561,7.561l-6.589,19.771l-6.59-19.771
	c-1.189-3.569-3.99-6.371-7.561-7.561l-19.771-6.59l19.771-6.589c3.569-1.189,6.371-3.99,7.561-7.561l6.59-19.771l6.589,19.771
	c1.189,3.569,3.99,6.371,7.561,7.561l19.771,6.589L201.174,197.6z"/>
<rect x="75.475" y="653.5" fill="none" width="468.148" height="221"/>
<rect id="_x3C_Sector_x3E_" x="0.5" y="0.5" fill="none" width="611" height="633"/>
</svg>
